<svg width="148" height="27" viewBox="0 0 148 27" fill="none" xmlns="http://www.w3.org/2000/svg">
<path d="M23.2749 4.73816L17.2247 1.42041C13.7446 -0.470152 12.2415 -0.476786 8.76133 1.42041L2.71038 4.73573C1.22887 5.55976 0.854881 6.05022 0.548853 6.48409C0.242824 6.9263 1.53141e-07 7.49507 0 9.21116L0.000378811 17.7807C0.000378811 19.505 0.269441 20.0538 0.575469 20.496L0.590271 20.517C0.89282 20.9463 1.24827 21.4506 2.7251 22.2618L8.77525 25.5796C12.2554 27.4702 13.7585 27.4768 17.2387 25.5796L23.2896 22.2643C24.7711 21.4402 25.1451 20.9498 25.4511 20.5159C25.7572 20.0737 26 19.5049 26 17.7888L25.9996 9.21933C25.9996 7.49502 25.7306 6.94621 25.4245 6.50399L25.4097 6.48299C25.1072 6.05371 24.7517 5.54938 23.2749 4.73816Z" fill="#D84674"/>
<path d="M38.504 20V8.8H40.216L45.112 16.976H44.216L49.032 8.8H50.744L50.76 20H48.792L48.776 11.888H49.192L45.096 18.72H44.168L40.008 11.888H40.488V20H38.504ZM58.8573 20V18.272L58.7453 17.904V14.88C58.7453 14.2933 58.5693 13.84 58.2173 13.52C57.8653 13.1893 57.3319 13.024 56.6173 13.024C56.1373 13.024 55.6626 13.0987 55.1933 13.248C54.7346 13.3973 54.3453 13.6053 54.0253 13.872L53.2413 12.416C53.6999 12.064 54.2439 11.8027 54.8733 11.632C55.5133 11.4507 56.1746 11.36 56.8573 11.36C58.0946 11.36 59.0493 11.6587 59.7213 12.256C60.4039 12.8427 60.7453 13.7547 60.7453 14.992V20H58.8573ZM56.1693 20.112C55.5293 20.112 54.9693 20.0053 54.4893 19.792C54.0093 19.568 53.6359 19.264 53.3693 18.88C53.1133 18.4853 52.9853 18.0427 52.9853 17.552C52.9853 17.072 53.0973 16.64 53.3213 16.256C53.5559 15.872 53.9346 15.568 54.4573 15.344C54.9799 15.12 55.6733 15.008 56.5373 15.008H59.0173V16.336H56.6813C55.9986 16.336 55.5399 16.448 55.3053 16.672C55.0706 16.8853 54.9533 17.152 54.9533 17.472C54.9533 17.8347 55.0973 18.1227 55.3853 18.336C55.6733 18.5493 56.0733 18.656 56.5853 18.656C57.0759 18.656 57.5133 18.544 57.8973 18.32C58.2919 18.096 58.5746 17.7653 58.7453 17.328L59.0813 18.528C58.8893 19.0293 58.5426 19.4187 58.0413 19.696C57.5506 19.9733 56.9266 20.112 56.1693 20.112ZM63.312 20V8.128H65.312V20H63.312ZM71.953 20.112C71.0037 20.112 70.1717 19.9253 69.457 19.552C68.753 19.168 68.2037 18.6453 67.809 17.984C67.425 17.3227 67.233 16.5707 67.233 15.728C67.233 14.8747 67.4197 14.1227 67.793 13.472C68.177 12.8107 68.6997 12.2933 69.361 11.92C70.033 11.5467 70.7957 11.36 71.649 11.36C72.481 11.36 73.2223 11.5413 73.873 11.904C74.5237 12.2667 75.0357 12.7787 75.409 13.44C75.7823 14.1013 75.969 14.88 75.969 15.776C75.969 15.8613 75.9637 15.9573 75.953 16.064C75.953 16.1707 75.9477 16.272 75.937 16.368H68.817V15.04H74.881L74.097 15.456C74.1077 14.9653 74.0063 14.5333 73.793 14.16C73.5797 13.7867 73.2863 13.4933 72.913 13.28C72.5503 13.0667 72.129 12.96 71.649 12.96C71.1583 12.96 70.7263 13.0667 70.353 13.28C69.9903 13.4933 69.7023 13.792 69.489 14.176C69.2863 14.5493 69.185 14.992 69.185 15.504V15.824C69.185 16.336 69.3023 16.7893 69.537 17.184C69.7717 17.5787 70.1023 17.8827 70.529 18.096C70.9557 18.3093 71.4463 18.416 72.001 18.416C72.481 18.416 72.913 18.3413 73.297 18.192C73.681 18.0427 74.0223 17.808 74.321 17.488L75.393 18.72C75.009 19.168 74.5237 19.5147 73.937 19.76C73.361 19.9947 72.6997 20.112 71.953 20.112ZM80.0059 20L76.3419 11.456H78.4219L81.5739 18.992H80.5499L83.8139 11.456H85.7339L82.0699 20H80.0059ZM86.9839 20V11.456H88.9839V20H86.9839ZM87.9919 10.048C87.6185 10.048 87.3092 9.93067 87.0639 9.696C86.8292 9.46133 86.7119 9.17867 86.7119 8.848C86.7119 8.50667 86.8292 8.224 87.0639 8C87.3092 7.76533 87.6185 7.648 87.9919 7.648C88.3652 7.648 88.6692 7.76 88.9039 7.984C89.1492 8.19733 89.2719 8.46933 89.2719 8.8C89.2719 9.152 89.1545 9.45067 88.9199 9.696C88.6852 9.93067 88.3759 10.048 87.9919 10.048ZM95.5289 20.112C94.6329 20.112 93.8329 19.9253 93.1289 19.552C92.4355 19.168 91.8915 18.6453 91.4969 17.984C91.1022 17.3227 90.9049 16.5707 90.9049 15.728C90.9049 14.8747 91.1022 14.1227 91.4969 13.472C91.8915 12.8107 92.4355 12.2933 93.1289 11.92C93.8329 11.5467 94.6329 11.36 95.5289 11.36C96.3609 11.36 97.0915 11.5307 97.7209 11.872C98.3609 12.2027 98.8462 12.6933 99.1769 13.344L97.6409 14.24C97.3849 13.8347 97.0702 13.536 96.6969 13.344C96.3342 13.152 95.9395 13.056 95.5129 13.056C95.0222 13.056 94.5795 13.1627 94.1849 13.376C93.7902 13.5893 93.4809 13.8987 93.2569 14.304C93.0329 14.6987 92.9209 15.1733 92.9209 15.728C92.9209 16.2827 93.0329 16.7627 93.2569 17.168C93.4809 17.5627 93.7902 17.8667 94.1849 18.08C94.5795 18.2933 95.0222 18.4 95.5129 18.4C95.9395 18.4 96.3342 18.304 96.6969 18.112C97.0702 17.92 97.3849 17.6213 97.6409 17.216L99.1769 18.112C98.8462 18.752 98.3609 19.248 97.7209 19.6C97.0915 19.9413 96.3609 20.112 95.5289 20.112ZM105.676 11.36C106.358 11.36 106.966 11.4933 107.5 11.76C108.044 12.0267 108.47 12.4373 108.78 12.992C109.089 13.536 109.244 14.24 109.244 15.104V20H107.244V15.36C107.244 14.6027 107.062 14.0373 106.7 13.664C106.348 13.2907 105.852 13.104 105.212 13.104C104.742 13.104 104.326 13.2 103.964 13.392C103.601 13.584 103.318 13.872 103.116 14.256C102.924 14.6293 102.828 15.104 102.828 15.68V20H100.828V8.128H102.828V13.76L102.396 13.056C102.694 12.512 103.126 12.096 103.692 11.808C104.268 11.5093 104.929 11.36 105.676 11.36ZM121.627 20.16C120.752 20.16 119.947 20.0213 119.211 19.744C118.485 19.456 117.851 19.056 117.307 18.544C116.763 18.0213 116.341 17.408 116.043 16.704C115.744 16 115.595 15.232 115.595 14.4C115.595 13.568 115.744 12.8 116.043 12.096C116.341 11.392 116.763 10.784 117.307 10.272C117.861 9.74933 118.507 9.34933 119.243 9.072C119.979 8.784 120.784 8.64 121.659 8.64C122.608 8.64 123.461 8.79467 124.219 9.104C124.987 9.41333 125.632 9.86667 126.155 10.464L124.843 11.744C124.405 11.3067 123.931 10.9867 123.419 10.784C122.917 10.5707 122.363 10.464 121.755 10.464C121.168 10.464 120.624 10.56 120.123 10.752C119.621 10.944 119.189 11.216 118.827 11.568C118.464 11.92 118.181 12.336 117.979 12.816C117.787 13.296 117.691 13.824 117.691 14.4C117.691 14.9653 117.787 15.488 117.979 15.968C118.181 16.448 118.464 16.8693 118.827 17.232C119.189 17.584 119.616 17.856 120.107 18.048C120.597 18.24 121.141 18.336 121.739 18.336C122.293 18.336 122.827 18.2507 123.339 18.08C123.861 17.8987 124.357 17.6 124.827 17.184L126.011 18.736C125.424 19.2053 124.741 19.5627 123.963 19.808C123.195 20.0427 122.416 20.16 121.627 20.16ZM124.043 18.464V14.272H126.011V18.736L124.043 18.464ZM132.578 20.112C131.629 20.112 130.797 19.9253 130.082 19.552C129.378 19.168 128.829 18.6453 128.434 17.984C128.05 17.3227 127.858 16.5707 127.858 15.728C127.858 14.8747 128.045 14.1227 128.418 13.472C128.802 12.8107 129.325 12.2933 129.986 11.92C130.658 11.5467 131.421 11.36 132.274 11.36C133.106 11.36 133.847 11.5413 134.498 11.904C135.149 12.2667 135.661 12.7787 136.034 13.44C136.407 14.1013 136.594 14.88 136.594 15.776C136.594 15.8613 136.589 15.9573 136.578 16.064C136.578 16.1707 136.573 16.272 136.562 16.368H129.442V15.04H135.506L134.722 15.456C134.733 14.9653 134.631 14.5333 134.418 14.16C134.205 13.7867 133.911 13.4933 133.538 13.28C133.175 13.0667 132.754 12.96 132.274 12.96C131.783 12.96 131.351 13.0667 130.978 13.28C130.615 13.4933 130.327 13.792 130.114 14.176C129.911 14.5493 129.81 14.992 129.81 15.504V15.824C129.81 16.336 129.927 16.7893 130.162 17.184C130.397 17.5787 130.727 17.8827 131.154 18.096C131.581 18.3093 132.071 18.416 132.626 18.416C133.106 18.416 133.538 18.3413 133.922 18.192C134.306 18.0427 134.647 17.808 134.946 17.488L136.018 18.72C135.634 19.168 135.149 19.5147 134.562 19.76C133.986 19.9947 133.325 20.112 132.578 20.112ZM142.355 20.112C141.48 20.112 140.702 19.9253 140.019 19.552C139.336 19.168 138.798 18.6453 138.403 17.984C138.008 17.3227 137.811 16.5707 137.811 15.728C137.811 14.8747 138.008 14.1227 138.403 13.472C138.798 12.8107 139.336 12.2933 140.019 11.92C140.702 11.5467 141.48 11.36 142.355 11.36C143.24 11.36 144.024 11.5467 144.707 11.92C145.4 12.2933 145.939 12.8053 146.323 13.456C146.718 14.1067 146.915 14.864 146.915 15.728C146.915 16.5707 146.718 17.3227 146.323 17.984C145.939 18.6453 145.4 19.168 144.707 19.552C144.024 19.9253 143.24 20.112 142.355 20.112ZM142.355 18.4C142.846 18.4 143.283 18.2933 143.667 18.08C144.051 17.8667 144.35 17.5573 144.563 17.152C144.787 16.7467 144.899 16.272 144.899 15.728C144.899 15.1733 144.787 14.6987 144.563 14.304C144.35 13.8987 144.051 13.5893 143.667 13.376C143.283 13.1627 142.851 13.056 142.371 13.056C141.88 13.056 141.443 13.1627 141.059 13.376C140.686 13.5893 140.387 13.8987 140.163 14.304C139.939 14.6987 139.827 15.1733 139.827 15.728C139.827 16.272 139.939 16.7467 140.163 17.152C140.387 17.5573 140.686 17.8667 141.059 18.08C141.443 18.2933 141.875 18.4 142.355 18.4Z" fill="white"/>
</svg>
